<?xml version="1.0" encoding="UTF-8" standalone="no"?>
<svg width="170px" height="41px" viewBox="0 0 170 41" version="1.1" xmlns="http://www.w3.org/2000/svg" xmlns:xlink="http://www.w3.org/1999/xlink">
    <!-- Generator: Sketch 42 (36781) - http://www.bohemiancoding.com/sketch -->
    <title>Group 5</title>
    <desc>Created with Sketch.</desc>
    <defs>
        <polygon id="path-1" points="0.0167746994 33.7901427 18.021504 33.7901427 18.021504 0.0685518596 0.0167746994 0.0685518596 0.0167746994 33.7901427"></polygon>
    </defs>
    <g id="Results" stroke="none" stroke-width="1" fill="none" fill-rule="evenodd">
        <g id="Stoplight/Harvey" transform="translate(-185.000000, -25.000000)">
            <g id="header" transform="translate(160.000000, 0.000000)">
                <g id="Group-5" transform="translate(25.000000, 25.000000)">
                    <g id="rm3-logotype-only" transform="translate(125.000000, 5.000000)">
                        <g id="Group-12" transform="translate(0.617856, 0.293802)" fill="#00338D">
                            <path d="M2.08724205,1.709893 L2.08724205,15.9345973 L6.11583528,15.9345973 C7.70749717,15.9345973 8.88404758,15.5592946 9.64720613,14.8078293 C10.4095908,14.0570519 10.7911701,12.9799804 10.7911701,11.5772165 L10.7911701,6.06727377 C10.7911701,3.16235326 9.23226661,1.709893 6.11583528,1.709893 L2.08724205,1.709893 Z M2.08724205,16.7304283 L2.08724205,33.7901513 L0.0480542259,33.7901513 L0.0480542259,0.0686206436 L6.314879,0.0686206436 C8.56936076,0.0686206436 10.2269693,0.590863206 11.2884785,1.63526235 C12.3492998,2.67974748 12.8800544,4.18044252 12.8800544,6.13648768 L12.8800544,11.4086097 C12.8800544,13.3320685 12.3407878,14.8404157 11.2636303,15.9345973 C10.1857849,17.0288649 8.50324213,17.5759556 6.21540013,17.5759556 L4.72330309,17.5759556 L13.9245395,33.7901513 L11.686394,33.7901513 L2.08724205,16.7304283 Z" id="Fill-10"></path>
                        </g>
                        <g id="Group-15" transform="translate(16.266218, 0.293802)">
                            <mask id="mask-2" fill="white">
                                <use xlink:href="#path-1"></use>
                            </mask>
                            <g id="Clip-14"></g>
                            <polygon id="Fill-13" fill="#00338D" mask="url(#mask-2)" points="15.9824022 3.99783818 15.7833585 3.99783818 9.56623016 33.7901685 8.22339441 33.7901685 2.00626608 3.99783818 1.85700479 3.99783818 1.85700479 33.7901685 0.0167746994 33.7901685 0.0167746994 0.0685518596 3.00096878 0.0685518596 8.86996406 28.3190887 8.91974648 28.3190887 14.8383522 0.0685518596 18.021504 0.0685518596 18.021504 33.7901685 15.9824022 33.7901685"></polygon>
                        </g>
                        <path d="M40.5195612,0.380237383 C41.7080628,0.380237383 42.5948606,0.686670128 43.1802984,1.2991917 C43.7653064,1.91205719 44.0581543,2.87632297 44.0581543,4.19302079 L44.0581543,6.19540918 C44.0581543,7.07326505 43.8428604,7.7499277 43.4134762,8.22522518 C42.9835762,8.70095256 42.4486946,9.02071221 41.8088314,9.18527794 C42.5219495,9.33195983 43.1071295,9.6610913 43.5644571,10.1728443 C44.0212689,10.6849412 44.2501477,11.4346009 44.2501477,12.4220813 L44.2501477,15.3845224 C44.2501477,16.5915098 43.9526569,17.5378057 43.358621,18.2236682 C42.7641552,18.9094448 41.7814897,19.2522471 40.4099366,19.2522471 C39.0563534,19.2522471 38.068873,18.9230296 37.4474955,18.2647667 C36.8255161,17.6064178 36.5147844,16.6283092 36.5147844,15.3296672 L36.5147844,12.9158645 L37.6394029,12.9158645 L37.6394029,15.424847 C37.6394029,16.435456 37.8631229,17.175228 38.3115086,17.644077 C38.7593784,18.113012 39.4587398,18.3470495 40.4099366,18.3470495 C41.3788453,18.3470495 42.0736498,18.0949562 42.4946079,17.5905974 C42.9150501,17.0860668 43.1254432,16.3566124 43.1254432,15.4025782 L43.1254432,12.3483104 C43.1254432,11.4680471 42.8965644,10.8028198 42.4396667,10.3532304 C41.982339,9.9040708 41.3151342,9.67906112 40.4372783,9.67906112 L39.3674291,9.67906112 L39.3674291,8.77386361 L40.4099366,8.77386361 C41.2507351,8.77386361 41.8911142,8.55401273 42.3300422,8.11336519 C42.7688841,7.67280364 42.9883051,7.06724645 42.9883051,6.29617774 L42.9883051,4.17625469 C42.9883051,3.13004997 42.7731831,2.38692477 42.343627,1.94627723 C41.9138989,1.50571567 41.2876206,1.2854349 40.4647059,1.2854349 C39.587022,1.2854349 38.9286731,1.52033228 38.4898311,1.98918125 C38.0508172,2.45854611 37.8313962,3.13434897 37.8313962,4.01727766 L37.8313962,5.89370533 L36.7342054,5.89370533 L36.7342054,4.0833103 C36.7342054,2.91320839 37.049666,2.00336796 37.6805013,1.35396096 C38.3115086,0.70515583 39.2578045,0.380237383 40.5195612,0.380237383" id="Fill-16" fill="#00338D"></path>
                        <path d="M40.5196307,0.380237383 C41.7081323,0.380237383 42.5949301,0.686670128 43.180368,1.2991917 C43.765376,1.91205719 44.0582239,2.87632297 44.0582239,4.19302079 L44.0582239,6.19540918 C44.0582239,7.07326505 43.8429299,7.7499277 43.4135458,8.22522518 C42.9836458,8.70095256 42.4487641,9.02071221 41.8089009,9.18527794 C42.5220191,9.33195983 43.107199,9.6610913 43.5645267,10.1728443 C44.0213385,10.6849412 44.2502172,11.4346009 44.2502172,12.4220813 L44.2502172,15.3845224 C44.2502172,16.5915098 43.9527264,17.5378057 43.3586905,18.2236682 C42.7642248,18.9094448 41.7815593,19.2522471 40.4100062,19.2522471 C39.056423,19.2522471 38.0689426,18.9230296 37.4475651,18.2647667 C36.8255857,17.6064178 36.5148539,16.6283092 36.5148539,15.3296672 L36.5148539,12.9158645 L37.6394724,12.9158645 L37.6394724,15.424847 C37.6394724,16.435456 37.8631924,17.175228 38.3115782,17.644077 C38.759448,18.113012 39.4588094,18.3470495 40.4100062,18.3470495 C41.3789149,18.3470495 42.0737193,18.0949562 42.4946775,17.5905974 C42.9151197,17.0860668 43.1255128,16.3566124 43.1255128,15.4025782 L43.1255128,12.3483104 C43.1255128,11.4680471 42.896634,10.8028198 42.4397362,10.3532304 C41.9824086,9.9040708 41.3152037,9.67906112 40.4373478,9.67906112 L39.3674986,9.67906112 L39.3674986,8.77386361 L40.4100062,8.77386361 C41.2508047,8.77386361 41.8911838,8.55401273 42.3301117,8.11336519 C42.7689537,7.67280364 42.9883747,7.06724645 42.9883747,6.29617774 L42.9883747,4.17625469 C42.9883747,3.13004997 42.7732527,2.38692477 42.3436966,1.94627723 C41.9139685,1.50571567 41.2876901,1.2854349 40.4647755,1.2854349 C39.5870916,1.2854349 38.9287426,1.52033228 38.4899007,1.98918125 C38.0508868,2.45854611 37.8314658,3.13434897 37.8314658,4.01727766 L37.8314658,5.89370533 L36.7342749,5.89370533 L36.7342749,4.0833103 C36.7342749,2.91320839 37.0497356,2.00336796 37.6805709,1.35396096 C38.3115782,0.70515583 39.2578741,0.380237383 40.5196307,0.380237383 Z" id="Stroke-18" stroke="#00338D"></path>
                    </g>
                    <path d="M77.7996521,0 L77.7996521,20.0418435 C77.0993201,20.5947001 76.5041261,21.1867187 75.9495055,21.8249558 L75.9495055,0 L53.7491577,0 L53.7491577,18.2495581 L51.9099482,18.2495581 L51.9099482,0 L29.7057194,0 L29.7057194,18.2784887 L27.8689797,18.2784887 L27.8689797,0 L5.66439808,0 L5.66439808,20.833201 L0,39.7224074 L4.98205951,39.7224074 L7.48490846,31.3565272 L8.20464512,31.3565272 L12.3367803,39.7224074 L18.3571658,39.7224074 L14.3478092,31.3565272 L23.4454217,31.3565272 L20.9206984,39.7224074 L26.366353,39.7224074 L28.8568536,31.3801656 L30.0521809,31.3801656 L30.0521809,31.3565272 L42.1740987,31.3565272 L39.7700371,39.6973578 L45.2594404,39.6973578 L47.5890586,31.3565272 L50.0594488,31.3565272 L50.1254247,39.6973578 L54.7310337,39.6973578 L60.0165116,31.3565272 L63.4772454,31.3565272 L61.692369,39.6973578 L67.0974502,39.6973578 L68.8505735,31.3565272 L71.9764886,31.3565272 C71.8522987,33.942287 72.5131158,36.2906043 74.2281354,37.871908 C76.3220751,39.796498 79.5383101,40.164481 81.9190861,40.164481 C85.1755417,40.164481 88.5561871,39.6973578 91.9576484,38.9303443 L93.830375,31.3565272 L100,31.3565272 L100,0 L77.7996521,0 Z M27.0688019,19.3422171 L26.7459788,20.412649 L23.7954113,30.2299982 L23.6789833,30.5754012 L13.968889,30.5754012 L13.2110487,28.976104 L23.6789833,18.2784887 L16.9533265,18.2784887 L8.76773322,27.0959684 L11.4191161,18.2784887 L6.45998935,18.2784887 L6.45998935,0.791710327 L27.0688019,0.791710327 L27.0688019,19.3422171 Z M32.8012927,27.6438856 L32.7949421,27.6438856 C32.5952504,27.6541171 32.3941476,27.6714049 32.1637613,27.6714049 C31.8628125,27.6714049 31.6278397,27.6826949 31.4059209,27.6826949 L30.0860509,27.6714049 L30.6964158,25.4151716 L30.9850161,24.2946404 L31.6775862,21.6697185 C31.9841799,21.6697185 32.2851286,21.6587813 32.5723177,21.6587813 L33.5944143,21.6587813 C35.3383644,21.6587813 36.4419606,21.7579215 36.843108,22.3188927 C37.1511129,22.7397976 37.1112452,23.4680017 36.7478487,24.575126 C36.125841,26.4820754 35.3383644,27.4501918 32.8012927,27.6438856 L32.8012927,27.6438856 Z M47.8109774,30.5754012 L49.9828886,22.8650458 L50.0594488,30.5754012 L47.8109774,30.5754012 Z M51.1118873,18.2495581 L45.9502464,18.2495581 L42.4094243,30.5754012 L36.9362504,30.5754012 C39.7252299,29.5437787 41.4222561,27.573676 41.9472405,24.650275 C42.3797881,22.378518 42.1740987,20.8836532 41.2479669,19.764886 C39.8596514,18.0992602 37.0731415,18.242149 34.597459,18.242149 C34.1649114,18.242149 30.5034276,18.2495581 30.5034276,18.2495581 L30.5034276,0.791710327 L51.1118873,0.791710327 L51.1118873,18.2495581 Z M63.6335411,30.5754012 L60.5309116,30.5754012 L65.2275462,23.1861048 L63.6335411,30.5754012 Z M75.150739,18.5960196 L75.1405074,22.8650458 C73.7024453,24.8520835 72.8094779,27.0215251 72.3921012,28.7690033 C72.2340414,29.3811323 72.1232584,29.9752679 72.0632804,30.5754012 L69.0322717,30.5754012 L71.6236765,18.2784887 L62.9018089,18.270374 L55.0954886,30.5754012 L54.5271083,30.5754012 L54.5271083,0.791710327 L75.150739,0.791710327 L75.150739,18.5960196 Z M87.0408592,35.6089713 C85.8631724,35.8220698 84.6890138,35.9639003 83.5713051,35.9639003 C80.5967464,35.9639003 78.5278563,34.5815825 78.4844604,31.3565272 L88.0954145,31.3565272 L87.0408592,35.6089713 Z M99.2164044,30.5754012 L94.0205407,30.5754012 L94.8785797,27.1393643 L84.4685062,27.1393643 L83.6125841,30.5754012 L78.5825422,30.5754012 L78.5825422,29.8697771 C78.6601608,29.4823894 78.7271951,29.0766555 78.8242184,28.6423438 C79.739413,24.9374641 82.1716995,21.276333 86.3793365,21.276333 C88.0442567,21.276333 89.6985926,21.911042 89.4720873,24.2138465 L95.6653507,24.2138465 C95.9094966,23.1395337 96.3194643,21.3087917 95.1505978,19.6262309 C93.830375,17.7976058 91.1712303,17.0637567 87.7224921,17.0637567 C85.2693897,17.0637567 81.6819964,17.4564365 78.5825422,19.479461 L78.5825422,0.791710327 L99.2164044,0.791710327 L99.2164044,30.5754012 L99.2164044,30.5754012 Z" id="KPMG_NoCP_white_US_283_6780" fill="#00338D"></path>
                </g>
            </g>
        </g>
    </g>
</svg>