<?xml version="1.0" encoding="UTF-8" standalone="no"?>
<svg width="18px" height="18px" viewBox="0 0 18 18" version="1.1" xmlns="http://www.w3.org/2000/svg" xmlns:xlink="http://www.w3.org/1999/xlink">
    <!-- Generator: Sketch 42 (36781) - http://www.bohemiancoding.com/sketch -->
    <title>Fill 6</title>
    <desc>Created with Sketch.</desc>
    <defs></defs>
    <g id="Results" stroke="none" stroke-width="1" fill="none" fill-rule="evenodd">
        <g id="Desktop-HD" transform="translate(-982.000000, -51.000000)" fill="#474747">
            <g id="header" transform="translate(160.000000, 0.000000)">
                <g id="top-tabs" transform="translate(822.000000, 49.000000)">
                    <path d="M17.1009,5.60071996 L15.3,5.60071996 L15.3,13.700315 L3.5991,13.700315 L3.5991,15.500225 C3.5991,15.9970001 4.0041,16.40018 4.5,16.40018 L14.3991,16.40018 L18,20 L18,6.50067497 C18,6.00299985 17.5968,5.60071996 17.1009,5.60071996 M12.6009,2 L0.9,2 C0.4032,2 0,2.40317984 0,2.90085496 L0,15.500225 L3.5991,11.900405 L12.6009,11.900405 C13.0968,11.900405 13.5,11.4972251 13.5,10.99955 L13.5,2.90085496 C13.5,2.40317984 13.0968,2 12.6009,2" id="Fill-6"></path>
                </g>
            </g>
        </g>
    </g>
</svg>