<?xml version="1.0" encoding="UTF-8" standalone="no"?>
<svg width="22px" height="21px" viewBox="0 0 22 21" version="1.1" xmlns="http://www.w3.org/2000/svg" xmlns:xlink="http://www.w3.org/1999/xlink">
    <!-- Generator: Sketch 42 (36781) - http://www.bohemiancoding.com/sketch -->
    <title>radar</title>
    <desc>Created with Sketch.</desc>
    <defs></defs>
    <g id="Results" stroke="none" stroke-width="1" fill="none" fill-rule="evenodd">
        <g id="Desktop-HD" transform="translate(-397.000000, -707.000000)" stroke="#4A90E2">
            <g id="chart-type-selector" transform="translate(388.000000, 698.000000)">
                <g id="radar" transform="translate(9.000000, 9.000000)">
                    <polygon id="Stroke-1" points="10.5587 0.5549 18.5927 4.4239 20.5767 13.1169 15.0167 20.0879 6.1007 20.0879 0.5407 13.1169 2.5247 4.4239"></polygon>
                    <polygon id="Stroke-3" points="10.5587 3.7217 16.1167 6.3977 17.4887 12.4117 13.6427 17.2347 7.4747 17.2347 3.6287 12.4117 5.0007 6.3977"></polygon>
                    <polygon id="Stroke-4" points="10.5587 6.8564 13.6657 8.3524 14.4327 11.7144 12.2827 14.4104 8.8347 14.4104 6.6847 11.7144 7.4517 8.3524"></polygon>
                    <path d="M10.5587,0.5549 L10.5587,6.8559" id="Stroke-5"></path>
                    <path d="M18.5923,4.4237 L13.6653,8.3527" id="Stroke-7"></path>
                    <g id="Group-16" transform="translate(0.000000, 11.588000)">
                        <path d="M20.5764,1.5287 L14.4334,0.1267" id="Stroke-8"></path>
                        <path d="M12.2829,2.8226 L15.0169,8.4996" id="Stroke-10"></path>
                        <path d="M6.1004,8.5 L8.8344,2.823" id="Stroke-12"></path>
                        <path d="M6.6845,0.1265 L0.5415,1.5285" id="Stroke-14"></path>
                    </g>
                    <path d="M2.5252,4.4237 L7.4522,8.3527" id="Stroke-17"></path>
                </g>
            </g>
        </g>
    </g>
</svg>