<?xml version="1.0" encoding="UTF-8" standalone="no"?>
<svg width="18px" height="18px" viewBox="0 0 18 18" version="1.1" xmlns="http://www.w3.org/2000/svg" xmlns:xlink="http://www.w3.org/1999/xlink">
    <!-- Generator: Sketch 42 (36781) - http://www.bohemiancoding.com/sketch -->
    <title>Shape</title>
    <desc>Created with Sketch.</desc>
    <defs></defs>
    <g id="Results" stroke="none" stroke-width="1" fill="none" fill-rule="evenodd">
        <g id="Desktop-HD" transform="translate(-1165.000000, -51.000000)" fill="#4A90E2">
            <g id="header" transform="translate(160.000000, 0.000000)">
                <g id="top-tabs" transform="translate(822.000000, 49.000000)">
                    <path d="M192.9,2 L192.9,4.71942446 C195.75814,5.17266187 198.139923,7.80143885 198.139923,10.9741007 C198.139923,11.7899281 197.663567,12.5151079 197.377753,13.2402878 L199.759536,14.6 C200.331164,13.5122302 200.998063,12.2431655 200.998063,10.8834532 C201.093335,6.26043165 197.663567,2.45323741 192.9,2 L192.9,2 Z M191.646067,17.2864322 C188.096629,17.2864322 185.730337,14.4824121 185.730337,10.9547739 C185.730337,7.78894472 188.005618,5.16582915 191.646067,4.71356784 L191.646067,2 C187.095506,2.36180905 183,6.25125628 183,10.9547739 C183,15.9296482 186.822472,20 191.919101,20 C194.922472,20 197.470787,18.5527638 199.2,16.2914573 L196.742697,14.9346734 C195.559551,16.3819095 193.648315,17.2864322 191.646067,17.2864322 L191.646067,17.2864322 Z" id="Shape"></path>
                </g>
            </g>
        </g>
    </g>
</svg>