<?xml version="1.0" encoding="UTF-8" standalone="no"?>
<svg width="20px" height="20px" viewBox="0 0 20 20" version="1.1" xmlns="http://www.w3.org/2000/svg" xmlns:xlink="http://www.w3.org/1999/xlink">
    <!-- Generator: Sketch 42 (36781) - http://www.bohemiancoding.com/sketch -->
    <title>sunburst chart</title>
    <desc>Created with Sketch.</desc>
    <defs></defs>
    <g id="Results" stroke="none" stroke-width="1" fill="none" fill-rule="evenodd" opacity="0.5">
        <g id="Desktop-HD" transform="translate(-517.000000, -708.000000)" fill="#808080">
            <g id="chart-type-selector" transform="translate(388.000000, 698.000000)">
                <g id="sunburst-chart" transform="translate(139.000000, 20.000000) rotate(-180.000000) translate(-139.000000, -20.000000) translate(129.000000, 10.000000)">
                    <path d="M11,4 L11,5.72661871 C12.764284,6.01438849 14.2345206,7.68345324 14.2345206,9.69784173 C14.2345206,10.2158273 13.9404733,10.676259 13.7640449,11.1366906 L15.2342815,12 C15.5871383,11.3093525 15.9988046,10.5035971 15.9988046,9.64028777 C16.057614,6.70503597 13.9404733,4.28776978 11,4 L11,4 Z" id="Path"></path>
                    <path d="M9.87078652,14.1909548 C7.46067416,14.1909548 5.85393258,12.321608 5.85393258,9.96984925 C5.85393258,7.85929648 7.3988764,6.11055276 9.87078652,5.80904523 L9.87078652,4 C6.78089888,4.24120603 4,6.83417085 4,9.96984925 C4,13.2864322 6.59550562,16 10.0561798,16 C12.0955056,16 13.8258427,15.0351759 15,13.5276382 L13.3314607,12.6231156 C12.5280899,13.5879397 11.2303371,14.1909548 9.87078652,14.1909548 L9.87078652,14.1909548 Z" id="Path"></path>
                    <path d="M11,0 L11,3.02158273 C14.1757111,3.52517986 16.8221371,6.44604317 16.8221371,9.97122302 C16.8221371,10.8776978 16.2928519,11.6834532 15.9752808,12.4892086 L18.6217067,14 C19.2568489,12.7913669 19.9978482,11.381295 19.9978482,9.8705036 C20.1037052,4.73381295 16.2928519,0.503597122 11,0 L11,0 Z M9.60674157,16.9849246 C5.66292135,16.9849246 3.03370787,13.8693467 3.03370787,9.94974874 C3.03370787,6.4321608 5.56179775,3.51758794 9.60674157,3.01507538 L9.60674157,0 C4.5505618,0.40201005 0,4.72361809 0,9.94974874 C0,15.4773869 4.24719101,20 9.91011236,20 C13.247191,20 16.0786517,18.3919598 18,15.879397 L15.2696629,14.3718593 C13.9550562,15.9798995 11.8314607,16.9849246 9.60674157,16.9849246 L9.60674157,16.9849246 Z" id="sunburst" transform="translate(10.000000, 10.000000) rotate(-180.000000) translate(-10.000000, -10.000000) "></path>
                </g>
            </g>
        </g>
    </g>
</svg>